<svg width="46" height="46" viewBox="0 0 46 46" fill="none" xmlns="http://www.w3.org/2000/svg">
<path d="M19.3584 10.2995C19.8623 8.7704 21.3023 7.66667 23.0001 7.66667C24.6979 7.66667 26.1379 8.7704 26.6418 10.2995C30.1284 11.7329 32.5834 15.1631 32.5834 19.1667V26.8333L36.6974 30.9473C37.3011 31.551 36.8735 32.5833 36.0196 32.5833H9.98028C9.1265 32.5833 8.69891 31.551 9.30262 30.9473L13.4167 26.8333V19.1667C13.4167 15.1631 15.8718 11.7329 19.3584 10.2995Z" fill="white"/>
<path d="M19.1665 34.5C19.1665 36.6172 20.8827 38.3333 22.9998 38.3333C25.117 38.3333 26.8332 36.6172 26.8332 34.5H19.1665Z" fill="white"/>
</svg>
